# xmcd CD database file
#
# Track frame offsets:
#	150
#	15699
#	32201
#	48407
#	66794
#	84115
#	99920
#	116468
#	132935
#	148925
#	164569
#	180679
#
# Disc length: 2631 seconds
#
# Revision: 6
# Processed by: cddbd v1.5.2PL0 Copyright (c) Steve Scherf et al.
# Submitted via: CDex 1.70beta2
#
DISCID=9e0a450c
DTITLE=Howard Carpendale - 20 Uhr 10
DYEAR=2007
DGENRE=Schlager
TTITLE0=20 Uhr 10
TTITLE1=Hi
TTITLE2=Bin wieder da
TTITLE3=Wenn ich könnte wie ich wollte
TTITLE4=Jetzt und hier
TTITLE5=Eine Nacht in New York City
TTITLE6=Diesen Traum
TTITLE7=Du fehlst
TTITLE8=Goodbye America
TTITLE9=Durban, South Africa
TTITLE10=Wo warst du so lang
TTITLE11=Nu und
EXTD=YEAR: 2007
EXTT0=
EXTT1=
EXTT2=
EXTT3=
EXTT4=
EXTT5=
EXTT6=
EXTT7=
EXTT8=
EXTT9=
EXTT10=
EXTT11=
PLAYORDER=
